<svg width="24" height="24" viewBox="0 0 24 24" fill="none" xmlns="http://www.w3.org/2000/svg">
<path d="M7 3V7" stroke="#B6B6B6" stroke-width="2" stroke-linecap="round"/>
<path d="M17 3V7" stroke="#B6B6B6" stroke-width="2" stroke-linecap="round"/>
<path d="M9.51 12.43C9.65 12.0433 9.76667 11.7 9.86 11.4H9.92C10 11.68 10.0967 12.0133 10.21 12.4C10.33 12.78 10.4467 13.18 10.56 13.6H9.13C9.25 13.2 9.37667 12.81 9.51 12.43Z" fill="white"/>
<path d="M16.0391 15.14C15.8991 15.1667 15.7557 15.18 15.6091 15.18C15.3357 15.18 15.1391 15.1333 15.0191 15.04C14.8991 14.9467 14.8391 14.82 14.8391 14.66C14.8391 14.5067 14.9024 14.3933 15.0291 14.32C15.1624 14.24 15.3357 14.19 15.5491 14.17L16.3691 14.1V15.02C16.2957 15.0667 16.1857 15.1067 16.0391 15.14Z" fill="white"/>
<path fill-rule="evenodd" clip-rule="evenodd" d="M5 4C3.89543 4 3 4.89543 3 6V20C3 21.1046 3.89543 22 5 22H19C20.1046 22 21 21.1046 21 20V6C21 4.89543 20.1046 4 19 4H5ZM8.87 14.82H10.83L11.07 15.63C11.1233 15.8433 11.2067 16 11.32 16.1C11.44 16.2 11.6433 16.25 11.93 16.25C12.13 16.25 12.3 16.2233 12.44 16.17C12.5867 16.1167 12.6967 16.0467 12.77 15.96C12.6633 15.58 12.54 15.15 12.4 14.67C12.26 14.19 12.1133 13.7033 11.96 13.21C11.8133 12.7167 11.6667 12.2367 11.52 11.77C11.3733 11.3033 11.2367 10.8933 11.11 10.54C11.0433 10.3467 10.8933 10.21 10.66 10.13C10.4333 10.0433 10.17 10 9.87 10C9.66333 10 9.45333 10.0267 9.24 10.08C9.03333 10.1333 8.88 10.19 8.78 10.25C8.72 10.3967 8.64667 10.5933 8.56 10.84C8.47333 11.0867 8.37667 11.36 8.27 11.66C8.16333 11.9533 8.05333 12.2633 7.94 12.59C7.82667 12.9167 7.71667 13.2367 7.61 13.55C7.51 13.8567 7.41667 14.1433 7.33 14.41C7.24333 14.6767 7.17667 14.9 7.13 15.08C7.09667 15.1933 7.06667 15.2933 7.04 15.38C7.01333 15.4667 7 15.5567 7 15.65C7 15.8433 7.07333 15.9933 7.22 16.1C7.37333 16.2 7.59667 16.25 7.89 16.25C8.02333 16.25 8.13667 16.24 8.23 16.22C8.32333 16.2 8.41333 16.1767 8.5 16.15C8.54667 15.97 8.6 15.7633 8.66 15.53C8.72667 15.2967 8.79667 15.06 8.87 14.82ZM16.4891 11.3C16.2091 11.2267 15.8957 11.19 15.5491 11.19C15.3024 11.19 15.0491 11.21 14.7891 11.25C14.5357 11.2833 14.3124 11.3367 14.1191 11.41C13.8124 11.5367 13.6591 11.7467 13.6591 12.04C13.6591 12.1667 13.6857 12.2867 13.7391 12.4C13.7991 12.5067 13.8691 12.5867 13.9491 12.64C14.1424 12.56 14.3591 12.49 14.5991 12.43C14.8457 12.37 15.0957 12.34 15.3491 12.34C15.6757 12.34 15.9257 12.39 16.0991 12.49C16.2724 12.59 16.3591 12.7467 16.3591 12.96V13.07L15.0291 13.21C14.4624 13.27 14.0424 13.42 13.7691 13.66C13.4957 13.9 13.3591 14.25 13.3591 14.71C13.3591 15.25 13.5624 15.6533 13.9691 15.92C14.3757 16.18 14.9224 16.31 15.6091 16.31C15.9891 16.31 16.3291 16.2767 16.6291 16.21C16.9291 16.1433 17.1824 16.0467 17.3891 15.92C17.5157 15.8467 17.6224 15.76 17.7091 15.66C17.8024 15.5533 17.8491 15.4133 17.8491 15.24V12.98C17.8491 12.6733 17.7924 12.4067 17.6791 12.18C17.5724 11.9533 17.4191 11.7667 17.2191 11.62C17.0191 11.4733 16.7757 11.3667 16.4891 11.3Z" fill="white"/>
</svg>
